<?xml version="1.0" encoding="UTF-8"?>
<!--Generator: Apple Native CoreSVG 341-->
<!DOCTYPE svg
PUBLIC "-//W3C//DTD SVG 1.1//EN"
       "http://www.w3.org/Graphics/SVG/1.1/DTD/svg11.dtd">
<svg version="1.1" xmlns="http://www.w3.org/2000/svg" xmlns:xlink="http://www.w3.org/1999/xlink" viewBox="0 0 40.4303 41.0801">
 <g>
  <rect height="41.0801" opacity="0" width="40.4303" x="0" y="0"/>
  <path d="M28.9163 38.6895C31.8167 37.3359 32.5199 34.5762 32.5902 31.0078C32.6429 28.6348 32.3968 25.875 32.9769 23.2559C33.5394 20.7246 34.9808 18.334 35.9652 16.1367C37.4417 12.9551 37.9867 10.1426 36.0179 7.64648C33.9964 5.15039 31.1488 5.0625 27.6859 5.7832C25.3304 6.31055 22.6761 7.11914 20.0218 7.11914C17.3675 7.11914 14.7132 6.31055 12.3753 5.7832C8.89485 5.04492 6.02962 5.15039 4.04329 7.64648C2.05696 10.1426 2.60188 12.9551 4.07845 16.1367C5.06282 18.334 6.48665 20.7246 7.06673 23.2734C7.64681 25.875 7.40071 28.6348 7.45345 31.0078C7.52376 34.5762 8.22688 37.3359 11.1273 38.6895C11.9886 39.1113 12.8324 39.3047 13.6585 39.3047C15.5745 39.3047 17.4378 38.2852 19.389 36.7734C21.3226 35.332 23.3968 33.416 25.7523 32.2734C28.1605 31.1133 30.8675 30.7441 33.1702 30.1641C36.6507 29.3027 39.1644 28.002 39.8851 24.8906C40.6058 21.7969 38.9007 19.4766 36.1585 17.2441C34.2777 15.6973 31.9925 14.1504 30.3226 12.0762C28.6878 10.0195 27.7562 7.4707 26.6663 5.30859C25.0492 2.16211 23.221 0 20.0218 0C16.8402 0 14.9945 2.16211 13.3949 5.30859C12.305 7.4707 11.3558 10.002 9.70345 12.0762C8.0511 14.168 5.76595 15.6973 3.90267 17.2441C1.16048 19.4766-0.5446 21.7969 0.158525 24.8906C0.879228 28.002 3.3929 29.3027 6.83821 30.1641C9.19368 30.7441 11.8831 31.1133 14.2913 32.2734C16.6292 33.416 18.721 35.3145 20.637 36.791C22.5882 38.2852 24.4515 39.3047 26.3675 39.3047C27.2113 39.3047 28.055 39.1113 28.9163 38.6895ZM27.7034 36.1758C25.7347 37.0898 24.0824 35.8242 22.3949 34.5586C20.2855 32.9766 18.0179 30.9375 15.5394 29.7422C12.973 28.5117 10.0374 28.0371 7.50618 27.4219C5.43196 26.8945 3.41048 26.3848 2.91829 24.2578C2.44368 22.1484 4.04329 20.8125 5.66048 19.4414C7.68196 17.7715 10.1605 16.0488 11.9007 13.8516C13.6761 11.6719 14.7308 8.91211 15.9261 6.57422C16.8929 4.6582 17.8597 2.83008 20.0218 2.83008C22.2015 2.83008 23.1507 4.6582 24.1175 6.57422C25.2952 8.91211 26.3675 11.6543 28.1253 13.8516C29.8831 16.0664 32.3441 17.7715 34.3656 19.4414C36.0179 20.8125 37.5999 22.1484 37.1253 24.2578C36.6331 26.3848 34.6117 26.8945 32.5374 27.4219C30.1292 28.002 27.0706 28.5117 24.5042 29.7422C22.0257 30.9375 19.6878 33.0117 17.6488 34.5762C15.9613 35.8242 14.2913 37.0898 12.3402 36.1758C10.4066 35.2266 10.3363 33.1172 10.2835 30.9902C10.2308 28.3887 10.4417 25.4004 9.82649 22.623C9.19368 19.9512 7.75228 17.332 6.62728 14.9062C5.78353 12.9902 4.90462 11.0918 6.24056 9.42188C7.61165 7.73438 9.63313 8.12109 11.7249 8.54297C14.2738 9.08789 17.1742 9.94922 20.0218 9.94922C22.8695 9.94922 25.7699 9.08789 28.3187 8.54297C30.4105 8.10352 32.432 7.73438 33.7855 9.42188C35.139 11.0918 34.2601 12.9902 33.4163 14.9062C32.2913 17.332 30.8324 19.9512 30.2347 22.6406C29.6019 25.4004 29.8128 28.3887 29.7601 30.9902C29.7074 33.1172 29.6546 35.2266 27.7034 36.1758Z" fill="black" fill-opacity="0.85"/>
 </g>
</svg>
