<?xml version="1.0" encoding="UTF-8"?>
<!--Generator: Apple Native CoreSVG 341-->
<!DOCTYPE svg
PUBLIC "-//W3C//DTD SVG 1.1//EN"
       "http://www.w3.org/Graphics/SVG/1.1/DTD/svg11.dtd">
<svg version="1.1" xmlns="http://www.w3.org/2000/svg" xmlns:xlink="http://www.w3.org/1999/xlink" viewBox="0 0 37.9512 34.8574">
 <g>
  <rect height="34.8574" opacity="0" width="37.9512" x="0" y="0"/>
  <path d="M25.2422 34.8574C28.4941 34.8574 31.1133 32.2207 31.1133 28.9863C31.1133 25.7344 28.4941 23.0977 25.2422 23.0977C21.9902 23.0977 19.3711 25.7344 19.3711 28.9863C19.3711 32.2207 21.9902 34.8574 25.2422 34.8574ZM25.2422 32.0273C23.5723 32.0273 22.2012 30.6562 22.2012 28.9863C22.2012 27.2988 23.5723 25.9277 25.2422 25.9277C26.9297 25.9277 28.2832 27.2988 28.2832 28.9863C28.2832 30.6562 26.9297 32.0273 25.2422 32.0273Z" fill="black" fill-opacity="0.85"/>
  <path d="M12.3223 34.8574C15.5742 34.8574 18.1934 32.2207 18.1934 28.9863C18.1934 25.7344 15.5742 23.0977 12.3223 23.0977C9.07031 23.0977 6.45117 25.7344 6.45117 28.9863C6.45117 32.2207 9.07031 34.8574 12.3223 34.8574ZM12.3223 32.0273C10.6523 32.0273 9.28125 30.6562 9.28125 28.9863C9.28125 27.2988 10.6523 25.9277 12.3223 25.9277C13.9922 25.9277 15.3633 27.2988 15.3633 28.9863C15.3633 30.6562 13.9922 32.0273 12.3223 32.0273Z" fill="black" fill-opacity="0.85"/>
  <path d="M31.6934 23.291C34.9453 23.291 37.5645 20.6719 37.5645 17.4199C37.5645 14.168 34.9453 11.5488 31.6934 11.5488C28.4414 11.5488 25.8047 14.168 25.8047 17.4199C25.8047 20.6719 28.4414 23.291 31.6934 23.291ZM31.6934 20.4609C30.0059 20.4609 28.6348 19.0898 28.6348 17.4199C28.6348 15.7324 30.0059 14.3789 31.6934 14.3789C33.3633 14.3789 34.7344 15.7324 34.7344 17.4199C34.7344 19.0898 33.3633 20.4609 31.6934 20.4609Z" fill="black" fill-opacity="0.85"/>
  <path d="M5.87109 23.291C9.12305 23.291 11.7598 20.6719 11.7598 17.4199C11.7598 14.168 9.12305 11.5488 5.87109 11.5488C2.63672 11.5488 0 14.168 0 17.4199C0 20.6719 2.63672 23.291 5.87109 23.291ZM5.87109 20.4609C4.20117 20.4609 2.83008 19.0898 2.83008 17.4199C2.83008 15.7324 4.20117 14.3789 5.87109 14.3789C7.55859 14.3789 8.92969 15.7324 8.92969 17.4199C8.92969 19.0898 7.55859 20.4609 5.87109 20.4609Z" fill="black" fill-opacity="0.85"/>
  <path d="M25.2422 11.7422C28.4941 11.7422 31.1133 9.12305 31.1133 5.87109C31.1133 2.61914 28.4941 0 25.2422 0C21.9902 0 19.3711 2.61914 19.3711 5.87109C19.3711 9.12305 21.9902 11.7422 25.2422 11.7422ZM25.2422 8.91211C23.5723 8.91211 22.2012 7.55859 22.2012 5.87109C22.2012 4.20117 23.5723 2.83008 25.2422 2.83008C26.9297 2.83008 28.2832 4.20117 28.2832 5.87109C28.2832 7.55859 26.9297 8.91211 25.2422 8.91211Z" fill="black" fill-opacity="0.85"/>
  <path d="M12.3223 11.7422C15.5742 11.7422 18.1934 9.12305 18.1934 5.87109C18.1934 2.61914 15.5742 0 12.3223 0C9.07031 0 6.45117 2.61914 6.45117 5.87109C6.45117 9.12305 9.07031 11.7422 12.3223 11.7422ZM12.3223 8.91211C10.6523 8.91211 9.28125 7.55859 9.28125 5.87109C9.28125 4.20117 10.6523 2.83008 12.3223 2.83008C13.9922 2.83008 15.3633 4.20117 15.3633 5.87109C15.3633 7.55859 13.9922 8.91211 12.3223 8.91211Z" fill="black" fill-opacity="0.85"/>
 </g>
</svg>
